<?xml version="1.0" encoding="iso-8859-1"?>
<!DOCTYPE svg PUBLIC "-//W3C//DTD SVG 1.1//EN" "http://www.w3.org/Graphics/SVG/1.1/DTD/svg11.dtd">
<svg width="24" height="24" xmlns="http://www.w3.org/2000/svg"> 
 <g>
  <g id="svg_1">
   <path fill="#BBBBBB" id="svg_2" d="m24,3c0,-0.6 -0.4,-1 -1,-1l-22,0c-0.6,0 -1,0.4 -1,1l0,2c0,0.6 0.4,1 1,1l22,0c0.6,0 1,-0.4 1,-1l0,-2z"/>
   <path fill="#BBBBBB" id="svg_3" d="m24,11c0,-0.6 -0.4,-1 -1,-1l-22,0c-0.6,0 -1,0.4 -1,1l0,2c0,0.6 0.4,1 1,1l22,0c0.6,0 1,-0.4 1,-1l0,-2z"/>
   <path fill="#BBBBBB" id="svg_4" d="m24,19c0,-0.6 -0.4,-1 -1,-1l-22,0c-0.6,0 -1,0.4 -1,1l0,2c0,0.6 0.4,1 1,1l22,0c0.6,0 1,-0.4 1,-1l0,-2z"/>
  </g>
 </g>
</svg>