<?xml version="1.0" encoding="iso-8859-1"?>
<svg version="1.1" id="Capa_1" xmlns="http://www.w3.org/2000/svg" xmlns:xlink="http://www.w3.org/1999/xlink" x="0px" y="0px"
	 viewBox="0 0 512 512" style="enable-background:new 0 0 512 512;" xml:space="preserve">
<g>
	<g>
		<path d="M504.5,191.758h-66.996c-12.719-36.005-35.606-67.077-66.46-90.109c-32.969-24.611-72.19-37.796-113.336-38.128
			c-0.495-0.01-1.005-0.014-1.505-0.015c-0.068-0.001-0.135-0.006-0.203-0.006c-0.065,0-0.128,0.005-0.193,0.006
			c-0.506,0.001-0.995,0.005-1.428,0.014c-0.027,0-0.055,0.001-0.082,0.001c-0.001,0-0.001,0-0.002,0h-0.001
			c-41.202,0.351-80.392,13.534-113.338,38.128c-30.854,23.033-53.741,54.104-66.46,90.109H7.5c-4.142,0-7.5,3.358-7.5,7.5v108.5
			c0,4.142,3.358,7.5,7.5,7.5h65.32c7.36,22.722,19.049,44.001,34.182,62.534c0.145,0.193,0.297,0.378,0.458,0.555
			c9.419,11.449,20.148,21.845,31.988,30.866c33.733,25.701,74.036,39.286,116.552,39.286c35.525,0,70.237-9.758,100.384-28.218
			c3.533-2.163,4.643-6.78,2.479-10.313c-2.163-3.533-6.781-4.643-10.313-2.479c-8.299,5.082-16.981,9.432-25.941,13.057
			c14.594-13.34,27.427-31.121,37.605-52.632c9.645,2.497,18.461,5.278,26.361,8.311c-4.447,4.822-9.168,9.422-14.165,13.767
			c-3.125,2.718-3.456,7.456-0.738,10.581c1.483,1.706,3.567,2.579,5.663,2.579c1.745,0,3.499-0.605,4.918-1.84
			c26.593-23.125,46.19-52.785,56.932-86.054H504.5c4.142,0,7.5-3.358,7.5-7.5v-108.5C512,195.116,508.642,191.758,504.5,191.758z
			 M396.805,147.835c10.26,13.325,18.578,28.072,24.714,43.923h-44.86v0c-2.736-11.732-6.243-23.024-10.446-33.745
			C377.508,155,387.752,151.593,396.805,147.835z M362.071,113.669c8.925,6.663,17.122,14.059,24.54,22.09
			c-7.911,3.04-16.741,5.826-26.397,8.325c-10.21-21.567-23.124-39.407-37.813-52.777
			C336.402,96.961,349.713,104.444,362.071,113.669z M361.216,191.758h-62.79c-0.558-7.576-1.217-14.992-1.972-22.178
			c1.141-0.091,2.283-0.179,3.419-0.277c18.246-1.651,35.572-4.252,51.627-7.738C355.363,171.145,358.607,181.255,361.216,191.758z
			 M255.932,78.516c0.046,0,0.092,0,0.138,0c0.625,0.2,5.432,2.332,11.491,19.807c1.357,3.914,5.63,5.986,9.543,4.628
			c3.913-1.357,5.986-5.63,4.628-9.543c-1.536-4.431-3.143-8.359-4.824-11.793c26.859,8.044,51.263,31.39,68.326,65.935
			c-14.581,3.028-30.234,5.323-46.685,6.811c-1.275,0.111-2.568,0.19-3.849,0.291c-1.42-10.901-3.067-21.099-4.917-30.373
			c-0.811-4.062-4.763-6.698-8.822-5.888c-4.062,0.811-6.698,4.76-5.888,8.822c1.729,8.666,3.276,18.193,4.623,28.385
			c-15.728,0.742-31.681,0.741-47.391,0c3.083-23.344,7.2-42.906,12.004-56.896C250.427,80.887,255.301,78.719,255.932,78.516z
			 M283.386,191.758h-54.771c0.544-7.25,1.184-14.341,1.913-21.211c8.451,0.419,16.966,0.637,25.472,0.637
			c8.504,0,17.018-0.218,25.472-0.637C282.201,177.417,282.841,184.508,283.386,191.758z M235.095,81.615
			c-1.735,3.544-3.392,7.611-4.973,12.217c-5.19,15.114-9.591,36.041-12.821,60.82c-1.272-0.1-2.556-0.178-3.822-0.288
			c-16.477-1.491-32.137-3.786-46.713-6.813C183.828,113.007,208.233,89.659,235.095,81.615z M215.546,169.581
			c-0.755,7.185-1.415,14.602-1.972,22.177h-62.79c2.609-10.502,5.853-20.614,9.716-30.193c16.048,3.485,33.381,6.087,51.655,7.741
			C213.282,169.405,214.415,169.491,215.546,169.581z M149.929,113.669c12.354-9.223,25.662-16.704,39.666-22.358
			c-14.687,13.37-27.6,31.208-37.808,52.773c-9.66-2.5-18.488-5.286-26.397-8.325C132.807,127.728,141.004,120.332,149.929,113.669z
			 M115.194,147.835c9.052,3.757,19.294,7.164,30.592,10.177c-4.203,10.722-7.71,22.014-10.446,33.746H90.479
			C96.616,175.908,104.934,161.161,115.194,147.835z M15,300.258v-93.5h91.066c0.033,0,0,0,0.033,0v93.5H15z M115.3,364.119
			c-11.364-14.79-20.414-31.318-26.647-48.861h45.585v0c2.881,13.534,6.756,26.501,11.549,38.726
			C134.535,356.986,124.328,360.379,115.3,364.119z M148.538,397.281c-8.312-6.333-16.03-13.4-23.076-21.069
			c7.892-3.029,16.697-5.806,26.324-8.298c10.214,21.587,23.102,39.415,37.759,52.771C175.042,414.82,161.28,406.99,148.538,397.281
			z M166.765,364.448c14.581-3.028,30.234-5.323,46.685-6.811c1.276-0.111,2.569-0.191,3.851-0.291
			c3.229,24.779,7.631,45.707,12.82,60.82c1.584,4.613,3.243,8.686,4.982,12.234C208.226,422.375,183.855,399.067,166.765,364.448z
			 M228.257,315.257h55.487c-0.618,8.986-1.378,17.749-2.274,26.196c-16.884-0.832-34.036-0.833-50.939,0
			C229.635,333.005,228.874,324.242,228.257,315.257z M256,433.499c-0.047,0-5.162-1.187-11.692-20.205
			c-4.804-13.99-8.92-33.553-12.004-56.896c15.728-0.742,31.681-0.741,47.391,0c-3.083,23.344-7.2,42.906-12.003,56.896
			C261.162,432.312,256.047,433.499,256,433.499z M276.897,430.4c1.738-3.548,3.398-7.62,4.982-12.234
			c5.19-15.113,9.591-36.04,12.821-60.82c1.272,0.1,2.556,0.178,3.822,0.288c16.477,1.491,32.137,3.786,46.713,6.813
			C328.146,399.066,303.774,422.374,276.897,430.4z M351.505,350.434c-16.05-3.486-33.384-6.088-51.66-7.742
			c-1.128-0.098-2.262-0.185-3.394-0.275c0.921-8.764,1.7-17.849,2.328-27.159h63.616
			C359.61,327.564,355.974,339.351,351.505,350.434z M396.746,364.138c-9.037-3.747-19.259-7.146-30.533-10.153
			c4.794-12.227,8.668-25.194,11.549-38.727h45.569C417.092,332.901,408.119,349.367,396.746,364.138z M497,206.758L497,206.758
			v93.5H192c-4.142,0-7.5,3.358-7.5,7.5c0,4.142,3.358,7.5,7.5,7.5h21.221c0.628,9.309,1.407,18.395,2.328,27.159
			c-1.142,0.091-2.285,0.179-3.422,0.277c-18.247,1.651-35.575,4.252-51.632,7.739c-4.47-11.082-8.105-22.869-10.891-35.176H160
			c4.142,0,7.5-3.358,7.5-7.5c0-4.142-3.358-7.5-7.5-7.5h-38.901v-93.5L497,206.758C497.014,206.758,497.006,206.758,497,206.758z"
			/>
	</g>
</g>
<g>
	<g>
		<path d="M98.638,238.98c-1.209-3.726-4.369-6.39-8.245-6.953l-14.292-2.077l-6.391-12.949c-1.733-3.513-5.244-5.695-9.162-5.695
			c-3.917,0-7.427,2.183-9.159,5.694l-6.392,12.95l-14.292,2.077c-3.875,0.563-7.035,3.228-8.246,6.952
			c-1.21,3.725-0.22,7.737,2.584,10.472l10.342,10.081l-2.441,14.233c-0.662,3.86,0.896,7.689,4.064,9.991
			c3.169,2.302,7.292,2.6,10.758,0.777l12.783-6.72l12.782,6.72c1.508,0.793,3.14,1.185,4.764,1.185
			c2.109,0,4.204-0.661,5.995-1.962c3.169-2.303,4.726-6.131,4.063-9.991l-2.441-14.234l10.34-10.08
			C98.857,246.717,99.848,242.705,98.638,238.98z M73.443,250.544c-2.41,2.348-3.509,5.729-2.939,9.043l1.228,7.158l-6.427-3.379
			c-2.978-1.565-6.532-1.565-9.508,0l-6.428,3.379l1.228-7.159c0.567-3.315-0.532-6.695-2.938-9.04l-5.201-5.069l7.186-1.044
			c3.329-0.483,6.205-2.573,7.692-5.588l3.214-6.512l3.213,6.511c1.488,3.017,4.364,5.106,7.692,5.589l7.187,1.044L73.443,250.544z"
			/>
	</g>
</g>
<g>
	<g>
		<path d="M256.697,230.441c-3.693-1.873-8.208-0.397-10.081,3.298l-10.163,20.045l-9.851-19.431
			c-0.159-0.395-0.352-0.779-0.579-1.148c-1.364-2.221-3.815-3.575-6.422-3.575s-5.026,1.354-6.391,3.575
			c-0.271,0.44-0.492,0.902-0.664,1.378l-9.734,19.202l-10.163-20.045c-1.873-3.695-6.388-5.169-10.081-3.298
			c-3.695,1.873-5.171,6.386-3.298,10.081l16.852,33.241c1.278,2.521,3.864,4.109,6.689,4.109s5.412-1.588,6.689-4.109
			l10.131-19.983l10.131,19.983c1.278,2.521,3.864,4.109,6.689,4.109c2.825,0,5.412-1.588,6.689-4.109l16.852-33.241
			C261.868,236.828,260.392,232.314,256.697,230.441z"/>
	</g>
</g>
<g>
	<g>
		<path d="M343.474,230.441c-3.693-1.873-8.208-0.397-10.081,3.298l-10.163,20.045l-9.851-19.431
			c-0.159-0.395-0.352-0.779-0.579-1.148c-1.364-2.221-3.815-3.575-6.422-3.575s-5.026,1.354-6.391,3.575
			c-0.271,0.44-0.492,0.902-0.664,1.378l-9.734,19.202l-10.163-20.045c-1.873-3.695-6.389-5.169-10.081-3.298
			c-3.695,1.873-5.171,6.386-3.298,10.081l16.852,33.241c1.278,2.521,3.864,4.109,6.689,4.109c2.825,0,5.412-1.588,6.689-4.109
			l10.131-19.983l10.131,19.983c1.278,2.521,3.864,4.109,6.689,4.109c2.825,0,5.412-1.588,6.689-4.109l16.852-33.241
			C348.646,236.828,347.169,232.314,343.474,230.441z"/>
	</g>
</g>
<g>
	<g>
		<path d="M430.251,230.441c-3.693-1.873-8.207-0.397-10.081,3.298l-10.163,20.045l-9.851-19.431
			c-0.159-0.395-0.352-0.779-0.579-1.148c-1.364-2.221-3.815-3.575-6.422-3.575s-5.026,1.354-6.391,3.575
			c-0.271,0.44-0.492,0.902-0.664,1.377l-9.735,19.202l-10.162-20.045c-1.873-3.695-6.386-5.171-10.081-3.298
			c-3.695,1.873-5.171,6.386-3.298,10.081l16.852,33.241c1.278,2.521,3.864,4.109,6.689,4.109c2.825,0,5.412-1.588,6.689-4.109
			l10.131-19.983l10.131,19.983c1.278,2.521,3.864,4.109,6.689,4.109c2.825,0,5.412-1.588,6.689-4.109l16.852-33.241
			C435.423,236.828,433.946,232.314,430.251,230.441z"/>
	</g>
</g>
</svg>
